<svg width="12" height="13" viewBox="0 0 12 13" fill="none" xmlns="http://www.w3.org/2000/svg">
<g clip-path="url(#clip0_953_15724)">
<path d="M11.625 6.88304C11.625 6.9825 11.5855 7.07788 11.5152 7.14821C11.4448 7.21853 11.3495 7.25804 11.25 7.25804H10.4686C10.3793 7.78201 10.1076 8.25755 9.70166 8.60064C9.29569 8.94374 8.78153 9.13231 8.25 9.13304H6.375V10.258H7.5C7.89782 10.258 8.27936 10.4161 8.56066 10.6974C8.84196 10.9787 9 11.3602 9 11.758C9 11.8575 8.96049 11.9529 8.89017 12.0232C8.81984 12.0935 8.72446 12.133 8.625 12.133C8.52554 12.133 8.43016 12.0935 8.35983 12.0232C8.28951 11.9529 8.25 11.8575 8.25 11.758C8.25 11.5591 8.17098 11.3684 8.03033 11.2277C7.88968 11.0871 7.69891 11.008 7.5 11.008H6.375V11.758C6.375 11.8575 6.33549 11.9529 6.26517 12.0232C6.19484 12.0935 6.09946 12.133 6 12.133C5.90054 12.133 5.80516 12.0935 5.73484 12.0232C5.66451 11.9529 5.625 11.8575 5.625 11.758V11.008H4.5C4.30109 11.008 4.11032 11.0871 3.96967 11.2277C3.82902 11.3684 3.75 11.5591 3.75 11.758C3.75 11.8575 3.71049 11.9529 3.64016 12.0232C3.56984 12.0935 3.47446 12.133 3.375 12.133C3.27554 12.133 3.18016 12.0935 3.10984 12.0232C3.03951 11.9529 3 11.8575 3 11.758C3 11.3602 3.15804 10.9787 3.43934 10.6974C3.72064 10.4161 4.10218 10.258 4.5 10.258H5.625V9.13304H3.75C3.21847 9.13231 2.70431 8.94374 2.29834 8.60064C1.89237 8.25755 1.62073 7.78201 1.53141 7.25804H0.75C0.650544 7.25804 0.555161 7.21853 0.484835 7.14821C0.414509 7.07788 0.375 6.9825 0.375 6.88304C0.375 6.78359 0.414509 6.6882 0.484835 6.61788C0.555161 6.54755 0.650544 6.50804 0.75 6.50804H1.875C1.97446 6.50804 2.06984 6.54755 2.14016 6.61788C2.21049 6.6882 2.25 6.78359 2.25 6.88304C2.25 7.28087 2.40804 7.6624 2.68934 7.9437C2.97064 8.22501 3.35218 8.38304 3.75 8.38304H8.25C8.64782 8.38304 9.02936 8.22501 9.31066 7.9437C9.59196 7.6624 9.75 7.28087 9.75 6.88304C9.75 6.78359 9.78951 6.6882 9.85983 6.61788C9.93016 6.54755 10.0255 6.50804 10.125 6.50804H11.25C11.3495 6.50804 11.4448 6.54755 11.5152 6.61788C11.5855 6.6882 11.625 6.78359 11.625 6.88304ZM3.75 7.63304H8.25C8.35744 7.63304 8.46364 7.60996 8.56138 7.56536C8.65913 7.52075 8.74615 7.45566 8.81656 7.3745C8.88697 7.29334 8.93911 7.19799 8.96947 7.09493C8.99982 6.99186 9.00768 6.88347 8.9925 6.7771L8.34937 2.2771C8.32313 2.09868 8.23378 1.93557 8.09755 1.8174C7.96131 1.69922 7.78722 1.63381 7.60687 1.63304H4.39313C4.21278 1.63381 4.03869 1.69922 3.90245 1.8174C3.76622 1.93557 3.67687 2.09868 3.65062 2.2771L3.0075 6.7771C2.99232 6.88347 3.00018 6.99186 3.03053 7.09493C3.06089 7.19799 3.11303 7.29334 3.18344 7.3745C3.25384 7.45566 3.34087 7.52075 3.43862 7.56536C3.53636 7.60996 3.64256 7.63304 3.75 7.63304Z" fill="#116114"/>
</g>
<defs>
<clipPath id="clip0_953_15724">
<rect width="12" height="12" fill="white" transform="translate(0 0.883041)"/>
</clipPath>
</defs>
</svg>
